<svg xmlns="http://www.w3.org/2000/svg" xmlns:xlink="http://www.w3.org/1999/xlink" version="1.2" width="31.33mm" height="26.20mm" viewBox="5.6906 -0.0200 11.8868 9.9390">
<line transform="translate(5.6906, 9.8800)" stroke-linejoin="round" stroke-linecap="round" stroke-width="0.0781" stroke="currentColor" x1="0.0390" y1="-0.0000" x2="11.8477" y2="-0.0000"/>
<line transform="translate(5.6906, 8.8800)" stroke-linejoin="round" stroke-linecap="round" stroke-width="0.0781" stroke="currentColor" x1="0.0390" y1="-0.0000" x2="11.8477" y2="-0.0000"/>
<line transform="translate(5.6906, 7.8800)" stroke-linejoin="round" stroke-linecap="round" stroke-width="0.0781" stroke="currentColor" x1="0.0390" y1="-0.0000" x2="11.8477" y2="-0.0000"/>
<line transform="translate(5.6906, 6.8800)" stroke-linejoin="round" stroke-linecap="round" stroke-width="0.0781" stroke="currentColor" x1="0.0390" y1="-0.0000" x2="11.8477" y2="-0.0000"/>
<line transform="translate(5.6906, 5.8800)" stroke-linejoin="round" stroke-linecap="round" stroke-width="0.0781" stroke="currentColor" x1="0.0390" y1="-0.0000" x2="11.8477" y2="-0.0000"/>
<rect transform="translate(0.0000, 4.8800)" x="10.9934" y="-0.0890" width="2.9831" height="0.1781" ry="0.0890" fill="currentColor"/>
<rect transform="translate(0.0000, 3.8800)" x="10.9934" y="-0.0890" width="2.9831" height="0.1781" ry="0.0890" fill="currentColor"/>
<rect transform="translate(0.0000, 2.8800)" x="10.9934" y="-0.0890" width="2.9831" height="0.1781" ry="0.0890" fill="currentColor"/>
<rect transform="translate(0.0000, 1.8800)" x="11.3156" y="-0.0890" width="2.6609" height="0.1781" ry="0.0890" fill="currentColor"/>
<path transform="translate(10.3406, 1.8800) scale(0.0040, -0.0040)" d="M25 44l-1 -69c0 -4 -1 -7 -1 -11c0 -22 2 -44 4 -66c46 38 96 80 96 139c0 34 -14 69 -44 69c-31 0 -53 -29 -54 -62zM-25 463c8 4 16 7 25 7s17 -3 25 -7l-6 -349c26 19 56 30 88 30c53 0 93 -46 93 -100c0 -82 -90 -118 -153 -169c-14 -11 -22 -32 -40 -32
c-12 0 -21 9 -21 21z" fill="currentColor"/>
<path transform="translate(6.4906, 6.8800) scale(0.0040, -0.0040)" d="M556 -125c0 29 23 52 52 52s52 -23 52 -52s-23 -52 -52 -52s-52 23 -52 52zM556 125c0 29 23 52 52 52s52 -23 52 -52s-23 -52 -52 -52s-52 23 -52 52zM233 261c171 0 292 -86 292 -248c0 -263 -264 -415 -517 -521c-2 -2 -5 -3 -8 -3c-6 0 -11 5 -11 11c0 3 1 6 3 8
c203 118 415 265 415 494c0 121 -64 237 -174 237c-79 0 -138 -57 -164 -133c14 8 28 13 43 13c55 0 100 -45 100 -100c0 -58 -44 -107 -100 -107c-60 0 -112 48 -112 107c0 132 103 242 233 242z" fill="currentColor"/>
<a style="color:inherit;" xlink:href="textedit:///var/www/html/notes/cache/notes/95269.ly:1:106:107">
<path transform="translate(11.4906, 1.8800) scale(0.0040, -0.0040)" d="M215 114c-50 0 -71 -42 -71 -88c0 -79 60 -140 139 -140c50 0 70 42 70 88c0 79 -59 140 -138 140zM497 0c0 -43 -35 -74 -73 -95c-54 -29 -114 -40 -175 -40s-122 11 -176 40c-38 21 -73 52 -73 95s35 74 73 95c54 29 115 40 176 40s121 -11 175 -40
c38 -21 73 -52 73 -95z" fill="currentColor"/>
</a>
</svg>
