<svg xmlns="http://www.w3.org/2000/svg" xmlns:xlink="http://www.w3.org/1999/xlink" version="1.2" width="31.33mm" height="19.37mm" viewBox="5.6906 -0.0320 11.8868 7.3500">
<line transform="translate(5.6906, 5.7680)" stroke-linejoin="round" stroke-linecap="round" stroke-width="0.0781" stroke="currentColor" x1="0.0390" y1="-0.0000" x2="11.8477" y2="-0.0000"/>
<line transform="translate(5.6906, 4.7680)" stroke-linejoin="round" stroke-linecap="round" stroke-width="0.0781" stroke="currentColor" x1="0.0390" y1="-0.0000" x2="11.8477" y2="-0.0000"/>
<line transform="translate(5.6906, 3.7680)" stroke-linejoin="round" stroke-linecap="round" stroke-width="0.0781" stroke="currentColor" x1="0.0390" y1="-0.0000" x2="11.8477" y2="-0.0000"/>
<line transform="translate(5.6906, 2.7680)" stroke-linejoin="round" stroke-linecap="round" stroke-width="0.0781" stroke="currentColor" x1="0.0390" y1="-0.0000" x2="11.8477" y2="-0.0000"/>
<line transform="translate(5.6906, 1.7680)" stroke-linejoin="round" stroke-linecap="round" stroke-width="0.0781" stroke="currentColor" x1="0.0390" y1="-0.0000" x2="11.8477" y2="-0.0000"/>
<path transform="translate(10.0406, 3.2680) scale(0.0040, -0.0040)" d="M215 -316c0 -9 -8 -17 -17 -17s-17 8 -17 17v151l-87 -31v-162c0 -9 -8 -17 -17 -17s-17 8 -17 17v150l-39 -13c-10 -4 -21 4 -21 15v64c0 7 5 13 11 15l49 18v164l-39 -14c-10 -4 -21 4 -21 15v65c0 7 5 13 11 15l49 17v163c0 9 8 17 17 17s17 -8 17 -17v-151l87 31v162
c0 9 8 17 17 17s17 -8 17 -17v-150l39 13c10 4 21 -4 21 -15v-64c0 -7 -5 -13 -11 -15l-49 -18v-164l39 14c10 4 21 -4 21 -15v-65c0 -7 -5 -13 -11 -15l-49 -17v-163zM94 67v-164l87 30v164z" fill="currentColor"/>
<path transform="translate(6.4906, 4.7680) scale(0.0040, -0.0040)" d="M374 260c5 0 10 1 15 1c154 0 254 -127 254 -259c0 -76 -33 -153 -107 -208c-22 -17 -47 -29 -73 -37c3 -36 5 -72 5 -108c0 -19 0 -37 -1 -56c-7 -120 -88 -226 -206 -226c-108 0 -195 87 -195 195c0 58 53 104 112 104c54 0 95 -48 95 -104c0 -52 -43 -95 -95 -95
c-12 0 -24 4 -35 9c26 -41 70 -70 121 -70c1 0 2 1 3 1c93 2 154 93 160 192c1 18 2 35 2 53c0 32 -2 64 -5 96c-29 -5 -58 -8 -89 -8c-188 0 -333 171 -333 372c0 178 133 306 251 440c-18 63 -35 126 -42 191c-6 51 -7 102 -7 154c0 116 55 226 150 295c5 4 11 4 16 0
c70 -84 132 -246 132 -359c0 -144 -87 -256 -183 -365c20 -69 39 -138 55 -208zM459 -205c69 24 117 96 117 166c0 92 -69 184 -179 193c25 -117 48 -235 62 -359zM71 31c0 -136 131 -251 267 -251c28 0 55 2 82 6c-15 128 -38 247 -64 367c-79 -9 -125 -62 -125 -121
c0 -44 26 -92 82 -124c4 -4 7 -9 7 -14c0 -11 -9 -21 -20 -21c-3 0 -6 1 -9 2c-80 43 -116 114 -116 184c0 88 57 173 158 196c-14 60 -30 119 -46 178c-108 -121 -216 -242 -216 -402zM411 1050c-99 -50 -161 -151 -161 -262c0 -76 15 -137 33 -200c82 97 149 198 149 325
c0 58 -4 84 -21 137z" fill="currentColor"/>
<a style="color:inherit;" xlink:href="textedit:///var/www/html/notes/cache/notes/26092.ly:1:108:109">
<path transform="translate(11.4906, 3.2680) scale(0.0040, -0.0040)" d="M215 114c-50 0 -71 -42 -71 -88c0 -79 60 -140 139 -140c50 0 70 42 70 88c0 79 -59 140 -138 140zM497 0c0 -43 -35 -74 -73 -95c-54 -29 -114 -40 -175 -40s-122 11 -176 40c-38 21 -73 52 -73 95s35 74 73 95c54 29 115 40 176 40s121 -11 175 -40
c38 -21 73 -52 73 -95z" fill="currentColor"/>
</a>
</svg>
